<mxfile host="app.diagrams.net" modified="2024-07-18T16:42:22.573Z" agent="Mozilla/5.0 (Windows NT 10.0; Win64; x64) AppleWebKit/537.36 (KHTML, like Gecko) Chrome/126.0.0.0 Safari/537.36" version="24.7.1" etag="70D7QoxyKfU9mez6yo0M" type="github">
  <diagram name="Trang-1" id="nfbppqY0tbARTc06jTo_">
    <mxGraphModel>
      <root>
        <mxCell id="0" />
        <mxCell id="1" parent="0" />
      </root>
    </mxGraphModel>
  </diagram>
</mxfile>
